HIERARCHY
ROOT hip
{
  OFFSET 0 0 0
  CHANNELS 6 Xposition Yposition Zposition Zrotation Yrotation Xrotation
  JOINT abdomen
  {
    OFFSET 0 20.6881 -0.73152
    CHANNELS 3 Zrotation Xrotation Yrotation
    JOINT chest
    {
      OFFSET 0 11.7043 -0.48768
      CHANNELS 3 Zrotation Xrotation Yrotation
      JOINT neck
      {
        OFFSET 0 22.1894 -2.19456
        CHANNELS 3 Zrotation Xrotation Yrotation
        JOINT head
        {
          OFFSET -0.24384 7.07133 1.2192
          CHANNELS 3 Zrotation Xrotation Yrotation
          JOINT leftEye
          {
            OFFSET 4.14528 8.04674 8.04672
            CHANNELS 3 Zrotation Xrotation Yrotation
            End Site
            {
              OFFSET 1 0 0
            }
          }
          JOINT rightEye
          {
            OFFSET -3.6576 8.04674 8.04672
            CHANNELS 3 Zrotation Xrotation Yrotation
            End Site
            {
              OFFSET 1 0 0
            }
          }
        }
      }
      JOINT rCollar
      {
        OFFSET -2.68224 19.2634 -4.8768
        CHANNELS 3 Zrotation Xrotation Yrotation
        JOINT rShldr
        {
          OFFSET -8.77824 -1.95073 1.46304
          CHANNELS 3 Zrotation Xrotation Yrotation
          JOINT rForeArm
          {
            OFFSET -28.1742 -1.7115 0.48768
            CHANNELS 3 Zrotation Xrotation Yrotation
            JOINT rHand
            {
              OFFSET -22.5879 0.773209 7.07136
              CHANNELS 3 Zrotation Xrotation Yrotation
              JOINT rThumb1
              {
                OFFSET -1.2192 -0.487915 3.41376
                CHANNELS 3 Zrotation Xrotation Yrotation
                JOINT rThumb2
                {
                  OFFSET -3.37035 -0.52449 3.41376
                  CHANNELS 3 Zrotation Xrotation Yrotation
                  End Site
                  {
                    OFFSET -1.78271 -1.18214 1.43049
                  }
                }
              }
              JOINT rIndex1
              {
                OFFSET -7.75947 0.938293 5.60832
                CHANNELS 3 Zrotation Xrotation Yrotation
                JOINT rIndex2
                {
                  OFFSET -2.54057 -0.884171 1.56538
                  CHANNELS 3 Zrotation Xrotation Yrotation
                  End Site
                  {
                    OFFSET -1.62519 -0.234802 1.16502
                  }
                }
              }
              JOINT rMid1
              {
                OFFSET -8.24714 1.18213 3.41376
                CHANNELS 3 Zrotation Xrotation Yrotation
                JOINT rMid2
                {
                  OFFSET -3.10165 -0.590103 1.0647
                  CHANNELS 3 Zrotation Xrotation Yrotation
                  End Site
                  {
                    OFFSET -2.48547 -0.328903 0.83742
                  }
                }
              }
              JOINT rRing1
              {
                OFFSET -8.82822 0.546677 1.51678
                CHANNELS 3 Zrotation Xrotation Yrotation
                JOINT rRing2
                {
                  OFFSET -2.60934 -0.819778 -0.0198488
                  CHANNELS 3 Zrotation Xrotation Yrotation
                  End Site
                  {
                    OFFSET -2.33842 -0.294052 0.168128
                  }
                }
              }
              JOINT rPinky1
              {
                OFFSET -8.27202 -0.0477905 -0.4584
                CHANNELS 3 Zrotation Xrotation Yrotation
                JOINT rPinky2
                {
                  OFFSET -1.82734 -0.647385 -0.700984
                  CHANNELS 3 Zrotation Xrotation Yrotation
                  End Site
                  {
                    OFFSET -1.69225 -0.51767 -0.607171
                  }
                }
              }
            }
          }
        }
      }
      JOINT lCollar
      {
        OFFSET 2.68224 19.2634 -4.8768
        CHANNELS 3 Zrotation Xrotation Yrotation
        JOINT lShldr
        {
          OFFSET 8.77824 -1.95073 1.46304
          CHANNELS 3 Zrotation Xrotation Yrotation
          JOINT lForeArm
          {
            OFFSET 28.1742 -1.7115 0.48768
            CHANNELS 3 Zrotation Xrotation Yrotation
            JOINT lHand
            {
              OFFSET 22.5879 0.773209 7.07136
              CHANNELS 3 Zrotation Xrotation Yrotation
              JOINT lThumb1
              {
                OFFSET 1.2192 -0.487915 3.41376
                CHANNELS 3 Zrotation Xrotation Yrotation
                JOINT lThumb2
                {
                  OFFSET 3.37035 -0.52449 3.41376
                  CHANNELS 3 Zrotation Xrotation Yrotation
                  End Site
                  {
                    OFFSET 1.78271 -1.18214 1.43049
                  }
                }
              }
              JOINT lIndex1
              {
                OFFSET 7.75947 0.938293 5.60832
                CHANNELS 3 Zrotation Xrotation Yrotation
                JOINT lIndex2
                {
                  OFFSET 2.54057 -0.884171 1.56538
                  CHANNELS 3 Zrotation Xrotation Yrotation
                  End Site
                  {
                    OFFSET 1.62519 -0.234802 1.16502
                  }
                }
              }
              JOINT lMid1
              {
                OFFSET 8.24714 1.18213 3.41376
                CHANNELS 3 Zrotation Xrotation Yrotation
                JOINT lMid2
                {
                  OFFSET 3.10165 -0.590103 1.0647
                  CHANNELS 3 Zrotation Xrotation Yrotation
                  End Site
                  {
                    OFFSET 2.48547 -0.328903 0.83742
                  }
                }
              }
              JOINT lRing1
              {
                OFFSET 8.82822 0.546677 1.51678
                CHANNELS 3 Zrotation Xrotation Yrotation
                JOINT lRing2
                {
                  OFFSET 2.60934 -0.819778 -0.0198488
                  CHANNELS 3 Zrotation Xrotation Yrotation
                  End Site
                  {
                    OFFSET 2.33842 -0.294052 0.168128
                  }
                }
              }
              JOINT lPinky1
              {
                OFFSET 8.27202 -0.0477905 -0.4584
                CHANNELS 3 Zrotation Xrotation Yrotation
                JOINT lPinky2
                {
                  OFFSET 1.82734 -0.647385 -0.700984
                  CHANNELS 3 Zrotation Xrotation Yrotation
                  End Site
                  {
                    OFFSET 1.69225 -0.51767 -0.607171
                  }
                }
              }
            }
          }
        }
      }
    }
  }
  JOINT rButtock
  {
    OFFSET -8.77824 4.35084 1.2192
    CHANNELS 3 Zrotation Xrotation Yrotation
    JOINT rThigh
    {
      OFFSET 0 -1.70687 -2.19456
      CHANNELS 3 Zrotation Xrotation Yrotation
      JOINT rShin
      {
        OFFSET 0 -36.8199 0.73152
        CHANNELS 3 Zrotation Xrotation Yrotation
        JOINT rFoot
        {
          OFFSET 0.73152 -45.1104 -5.12064
          CHANNELS 3 Zrotation Xrotation Yrotation
          End Site
          {
            OFFSET -1.1221 -3.69964 12.103
          }
        }
      }
    }
  }
  JOINT lButtock
  {
    OFFSET 8.77824 4.35084 1.2192
    CHANNELS 3 Zrotation Xrotation Yrotation
    JOINT lThigh
    {
      OFFSET 0 -1.70687 -2.19456
      CHANNELS 3 Zrotation Xrotation Yrotation
      JOINT lShin
      {
        OFFSET 0 -36.8199 0.73152
        CHANNELS 3 Zrotation Xrotation Yrotation
        JOINT lFoot
        {
          OFFSET -0.73152 -45.1104 -5.12064
          CHANNELS 3 Zrotation Xrotation Yrotation
          End Site
          {
            OFFSET 1.1221 -3.69964 12.103
          }
        }
      }
    }
  }
}
MOTION
Frames:	4
Frame Time:	0.00833333
-3.13614 78.8649 32.3199 -3.6411 9.8559 15.3157 5.95172 11.1386 7.61216 -3.95823 -13.6597 1.86865 9.87428 -1.81957 13.0178 -3.33951 -41.905 23.4668 -0.0 0.0 0.0 -0.0 0.0 0.0 1.8298e-13 -3.40019e-13 -1.01824e-13 97.8627 37.6906 -29.4644 -22.7237 -50.8881 107.101 -0.475299 19.2065 2.80642 3.05682e-09 1.19896e-08 -1.07444e-10 5.28265e-09 2.09079e-08 -2.38052e-10 3.05683e-09 1.19896e-08 -1.0746e-10 7.73091 5.47488 0.417314 3.05682e-09 1.19896e-08 -1.07445e-10 2.90554 0.965183 0.102902 3.05683e-09 1.19896e-08 -1.0745e-10 10.2786 0.731801 0.0259123 3.05682e-09 1.19896e-08 -1.07439e-10 2.22167 -0.733487 -0.20892 1.82942e-13 -3.40024e-13 -1.02073e-13 -82.9945 53.9521 10.3763 23.7401 -49.7244 -104.097 0.033835 5.24518 -0.739246 -6.50463e-10 -1.59223e-08 2.48824e-09 -1.10971e-09 -2.76908e-08 4.30611e-09 -6.50465e-10 -1.59223e-08 2.48824e-09 -7.73091 5.47488 -0.417314 -6.50466e-10 -1.59223e-08 2.48824e-09 -2.90554 0.965183 -0.102902 -6.50468e-10 -1.59223e-08 2.48824e-09 -10.2786 0.731801 -0.0259123 -6.50456e-10 -1.59223e-08 2.48823e-09 -2.22167 -0.733487 0.20892 -2.03217e-16 0.0 -3.88251e-19 -11.5483 -25.6883 -23.2927 -0.191445 31.0149 0.539711 0.785459 -16.0088 1.89153 2.03217e-16 0.0 3.88251e-19 11.3119 -42.4602 1.67253 0.438479 45.6938 -0.953397 -0.559315 -17.662 -0.966212
-3.11606 78.9196 32.5075 -3.7285 9.9027 14.9928 5.98211 10.8959 7.5215 -3.94295 -13.578 1.84382 9.79923 -2.02738 12.9461 -3.3362 -42.2138 23.3275 -0.0 0.0 0.0 -0.0 0.0 0.0 9.94871e-14 -3.46543e-13 -1.13096e-13 97.9471 37.594 -29.6044 -22.736 -50.875 107.066 -0.472478 19.1515 2.79774 2.59199e-09 1.26462e-08 -7.0523e-10 4.47175e-09 2.19853e-08 -1.26376e-09 2.59199e-09 1.26462e-08 -7.05248e-10 7.73091 5.47488 0.417314 2.59198e-09 1.26462e-08 -7.0523e-10 2.90554 0.965183 0.102902 2.592e-09 1.26462e-08 -7.05234e-10 10.2786 0.731801 0.0259123 2.59199e-09 1.26462e-08 -7.0522e-10 2.22167 -0.733487 -0.20892 9.94435e-14 -3.46545e-13 -1.13215e-13 -83.1375 53.8347 10.494 23.7636 -49.6954 -104.024 0.035002 5.33365 -0.751788 -1.07316e-09 -1.06455e-08 2.37111e-09 -1.84122e-09 -1.85792e-08 4.10666e-09 -1.07317e-09 -1.06455e-08 2.37112e-09 -7.73091 5.47488 -0.417314 -1.07316e-09 -1.06455e-08 2.37111e-09 -2.90554 0.965183 -0.102902 -1.07317e-09 -1.06455e-08 2.37111e-09 -10.2786 0.731801 -0.0259123 -1.07315e-09 -1.06455e-08 2.37111e-09 -2.22167 -0.733487 0.20892 -2.03217e-16 0.0 -3.88251e-19 -11.3222 -25.1062 -23.1591 -0.186732 30.6408 0.532476 0.769499 -15.9677 1.85318 2.03217e-16 0.0 3.88251e-19 11.3529 -41.9731 1.61271 0.434972 45.5448 -0.946812 -0.566682 -17.7125 -0.988147
-3.09795 78.9631 32.6833 -3.807 9.9156 14.6981 5.97949 10.6908 7.43517 -3.92827 -13.5118 1.81923 9.72805 -2.22171 12.8693 -3.30317 -42.4906 23.1872 -0.0 0.0 0.0 -0.0 0.0 0.0 5.25075e-14 -3.24417e-13 -8.26447e-14 98.0667 37.5356 -29.727 -22.7552 -50.8546 107.012 -0.462108 18.9581 2.76715 2.02479e-09 1.21392e-08 -1.12706e-09 3.48611e-09 2.10552e-08 -1.98386e-09 2.02479e-09 1.21392e-08 -1.12707e-09 7.73091 5.47488 0.417314 2.02478e-09 1.21392e-08 -1.12706e-09 2.90554 0.965183 0.102902 2.0248e-09 1.21393e-08 -1.12706e-09 10.2786 0.731801 0.0259123 2.02479e-09 1.21392e-08 -1.12704e-09 2.22167 -0.733487 -0.20892 5.24543e-14 -3.24417e-13 -8.26944e-14 -83.2417 53.7414 10.5795 23.7765 -49.6793 -103.984 0.0356533 5.38165 -0.758596 -1.20598e-09 -6.61315e-09 2.07214e-09 -2.07338e-09 -1.15941e-08 3.59101e-09 -1.20599e-09 -6.61315e-09 2.07214e-09 -7.73091 5.47488 -0.417314 -1.20599e-09 -6.61319e-09 2.07214e-09 -2.90554 0.965183 -0.102902 -1.20599e-09 -6.61315e-09 2.07214e-09 -10.2786 0.731801 -0.0259123 -1.20597e-09 -6.61316e-09 2.07214e-09 -2.22167 -0.733487 0.20892 -2.03217e-16 0.0 -3.88251e-19 -11.1188 -24.526 -23.0269 -0.182364 30.2869 0.525652 0.755297 -15.9283 1.81962 2.03217e-16 0.0 3.88251e-19 11.3835 -41.4749 1.56363 0.431575 45.3988 -0.940324 -0.576931 -17.7653 -1.01745
-3.09058 79.0003 32.8539 -3.8939 9.927 14.3887 5.92584 10.5387 7.35275 -3.91855 -13.471 1.79368 9.666 -2.39573 12.7823 -3.22879 -42.7291 23.0381 -0.0 0.0 0.0 -0.0 0.0 0.0 6.6974e-14 -2.4714e-13 2.59499e-14 98.2776 37.5567 -29.8476 -22.7889 -50.8187 106.916 -0.436677 18.4715 2.69052 1.16545e-09 9.33097e-09 -1.29001e-09 1.9987e-09 1.61456e-08 -2.25218e-09 1.16545e-09 9.33098e-09 -1.29002e-09 7.73091 5.47488 0.417314 1.16544e-09 9.33098e-09 -1.29001e-09 2.90554 0.965183 0.102902 1.16546e-09 9.33099e-09 -1.29001e-09 10.2786 0.731801 0.0259123 1.16545e-09 9.33097e-09 -1.28999e-09 2.22167 -0.733487 -0.20892 6.68983e-14 -2.47139e-13 2.58742e-14 -83.3024 53.6866 10.633 23.7753 -49.6808 -103.988 0.035318 5.35604 -0.754966 -8.13332e-10 -4.26922e-09 1.38073e-09 -1.40088e-09 -7.47905e-09 2.3936e-09 -8.13337e-10 -4.26923e-09 1.38073e-09 -7.73091 5.47488 -0.417314 -8.13335e-10 -4.26926e-09 1.38073e-09 -2.90554 0.965183 -0.102902 -8.13336e-10 -4.26923e-09 1.38073e-09 -10.2786 0.731801 -0.0259123 -8.13322e-10 -4.26923e-09 1.38073e-09 -2.22167 -0.733487 0.20892 -2.03217e-16 0.0 -3.88251e-19 -10.9525 -23.9402 -22.903 -0.17842 29.9606 0.519293 0.745832 -15.8856 1.8001 2.03217e-16 0.0 3.88251e-19 11.3971 -40.9575 1.53431 0.428353 45.2572 -0.93379 -0.594551 -17.8213 -1.06603
